#Comment line ignore any data following # character 
#Hierarchical Translation and Rotation (.htr) file 
[Header]	
#Header keywords are followed by a single value 
FileType HTR		#Single word string
DataType HTRS		#Translation followed by rotation and scale data
FileVersion 1		#integer
NumSegments 64		#integer
NumFrames 3		#integer
DataFrameRate 30		#integer, data frame rate in this file
EulerRotationOrder ZYX
CalibrationUnits mm
RotationUnits Degrees
GlobalAxisofGravity Y
BoneLengthAxis Y
ScaleFactor 1.00
[SegmentNames&Hierarchy]
#CHILD	PARENT
Pinger_Root GLOBAL
Pelvis Pinger_Root
L_Hip Pelvis
R_Hip Pelvis
Rear_Leg01 Pelvis
Spine1 Pelvis
L_Leg01 L_Hip
L_Leg02 L_Leg01
L_Leg03 L_Leg02
L_Foot L_Leg03
L_Toe1_01 L_Foot
L_Toe2_01 L_Foot
L_Toe3_01 L_Foot
planeAlignerLeft L_Foot
L_Toe1_02 L_Toe1_01
L_Toe1_03 L_Toe1_02
L_Toe2_02 L_Toe2_01
L_Toe2_03 L_Toe2_02
L_Toe3_02 L_Toe3_01
L_Toe3_03 L_Toe3_02
planeLockWeightLeft planeAlignerLeft
R_Leg01 R_Hip
R_Leg02 R_Leg01
R_Leg03 R_Leg02
R_Foot R_Leg03
planeAlignerRight R_Foot
R_Toe1_01 R_Foot
R_Toe2_01 R_Foot
R_Toe3_01 R_Foot
planeLockWeightRight planeAlignerRight
R_Toe1_02 R_Toe1_01
R_Toe1_03 R_Toe1_02
R_Toe2_02 R_Toe2_01
R_Toe2_03 R_Toe2_02
R_Toe3_02 R_Toe3_01
R_Toe3_03 R_Toe3_02
Rear_Leg02 Rear_Leg01
Rear_Leg03 Rear_Leg02
Rear_Leg04 Rear_Leg03
Rear_Foot Rear_Leg04
planeAlignerCenter Rear_Foot
Rear_Toe1_01 Rear_Foot
Rear_Toe2_01 Rear_Foot
Rear_Toe3_01 Rear_Foot
planeLockWeightCenter planeAlignerCenter
Rear_Toe1_02 Rear_Toe1_01
Rear_Toe1_03 Rear_Toe1_02
Rear_Toe2_02 Rear_Toe2_01
Rear_Toe2_03 Rear_Toe2_02
Rear_Toe3_02 Rear_Toe3_01
Rear_Toe3_03 Rear_Toe3_02
Back_Bone Spine1
Head Spine1
Motor_Bone Back_Bone
Ping_Mechanism Back_Bone
BN_LookIK Head
bottomMouth Head
L_Mouth01 Head
L_mouthFront Head
mouthGun Head
R_Mouth01 Head
R_mouthFront Head
TopMouth Head
weapon_bone Head
[BasePosition]
#SegmentName Tx, Ty, Tz, Rx, Ry, Rz, BoneLength
Pinger_Root 0.000000 0.000000 0.000000 -90.000000 0.000000 0.000000 10.000000 
Pelvis 0.000000 0.000000 0.000000 0.000000 0.000000 0.000000 10.000000 
L_Hip 0.000000 0.000000 0.000000 0.000000 0.000000 0.000000 10.000000 
R_Hip 0.000000 0.000000 0.000000 0.000000 0.000000 0.000000 10.000000 
Rear_Leg01 0.000000 0.000000 0.000000 0.000000 0.000000 0.000000 10.000000 
Spine1 0.000000 0.000000 0.000000 0.000000 0.000000 0.000000 10.000000 
L_Leg01 0.000000 0.000000 0.000000 0.000000 0.000000 0.000000 10.000000 
L_Leg02 0.000000 0.000000 0.000000 0.000000 0.000000 0.000000 10.000000 
L_Leg03 0.000000 0.000000 0.000000 0.000000 0.000000 0.000000 10.000000 
L_Foot 0.000000 0.000000 0.000000 0.000000 0.000000 0.000000 10.000000 
L_Toe1_01 0.000000 0.000000 0.000000 0.000000 0.000000 0.000000 10.000000 
L_Toe2_01 0.000000 0.000000 0.000000 0.000000 0.000000 0.000000 10.000000 
L_Toe3_01 0.000000 0.000000 0.000000 0.000000 0.000000 0.000000 10.000000 
planeAlignerLeft 0.000000 0.000000 0.000000 0.000000 0.000000 0.000000 10.000000 
L_Toe1_02 0.000000 0.000000 0.000000 0.000000 0.000000 0.000000 10.000000 
L_Toe1_03 0.000000 0.000000 0.000000 0.000000 0.000000 0.000000 10.000000 
L_Toe2_02 0.000000 0.000000 0.000000 0.000000 0.000000 0.000000 10.000000 
L_Toe2_03 0.000000 0.000000 0.000000 0.000000 0.000000 0.000000 10.000000 
L_Toe3_02 0.000000 0.000000 0.000000 0.000000 0.000000 0.000000 10.000000 
L_Toe3_03 0.000000 0.000000 0.000000 0.000000 0.000000 0.000000 10.000000 
planeLockWeightLeft 0.000000 0.000000 0.000000 0.000000 0.000000 0.000000 10.000000 
R_Leg01 0.000000 0.000000 0.000000 0.000000 0.000000 0.000000 10.000000 
R_Leg02 0.000000 0.000000 0.000000 0.000000 0.000000 0.000000 10.000000 
R_Leg03 0.000000 0.000000 0.000000 0.000000 0.000000 0.000000 10.000000 
R_Foot 0.000000 0.000000 0.000000 0.000000 0.000000 0.000000 10.000000 
planeAlignerRight 0.000000 0.000000 0.000000 0.000000 0.000000 0.000000 10.000000 
R_Toe1_01 0.000000 0.000000 0.000000 0.000000 0.000000 0.000000 10.000000 
R_Toe2_01 0.000000 0.000000 0.000000 0.000000 0.000000 0.000000 10.000000 
R_Toe3_01 0.000000 0.000000 0.000000 0.000000 0.000000 0.000000 10.000000 
planeLockWeightRight 0.000000 0.000000 0.000000 0.000000 0.000000 0.000000 10.000000 
R_Toe1_02 0.000000 0.000000 0.000000 0.000000 0.000000 0.000000 10.000000 
R_Toe1_03 0.000000 0.000000 0.000000 0.000000 0.000000 0.000000 10.000000 
R_Toe2_02 0.000000 0.000000 0.000000 0.000000 0.000000 0.000000 10.000000 
R_Toe2_03 0.000000 0.000000 0.000000 0.000000 0.000000 0.000000 10.000000 
R_Toe3_02 0.000000 0.000000 0.000000 0.000000 0.000000 0.000000 10.000000 
R_Toe3_03 0.000000 0.000000 0.000000 0.000000 0.000000 0.000000 10.000000 
Rear_Leg02 0.000000 0.000000 0.000000 0.000000 0.000000 0.000000 10.000000 
Rear_Leg03 0.000000 0.000000 0.000000 0.000000 0.000000 0.000000 10.000000 
Rear_Leg04 0.000000 0.000000 0.000000 0.000000 0.000000 0.000000 10.000000 
Rear_Foot 0.000000 0.000000 0.000000 0.000000 0.000000 0.000000 10.000000 
planeAlignerCenter 0.000000 0.000000 0.000000 0.000000 0.000000 0.000000 10.000000 
Rear_Toe1_01 0.000000 0.000000 0.000000 0.000000 0.000000 0.000000 10.000000 
Rear_Toe2_01 0.000000 0.000000 0.000000 0.000000 0.000000 0.000000 10.000000 
Rear_Toe3_01 0.000000 0.000000 0.000000 0.000000 0.000000 0.000000 10.000000 
planeLockWeightCenter 0.000000 0.000000 0.000000 0.000000 0.000000 0.000000 10.000000 
Rear_Toe1_02 0.000000 0.000000 0.000000 0.000000 0.000000 0.000000 10.000000 
Rear_Toe1_03 0.000000 0.000000 0.000000 0.000000 0.000000 0.000000 10.000000 
Rear_Toe2_02 0.000000 0.000000 0.000000 0.000000 0.000000 0.000000 10.000000 
Rear_Toe2_03 0.000000 0.000000 0.000000 0.000000 0.000000 0.000000 10.000000 
Rear_Toe3_02 0.000000 0.000000 0.000000 0.000000 0.000000 0.000000 10.000000 
Rear_Toe3_03 0.000000 0.000000 0.000000 0.000000 0.000000 0.000000 10.000000 
Back_Bone 0.000000 0.000000 0.000000 0.000000 0.000000 0.000000 10.000000 
Head 0.000000 0.000000 0.000000 0.000000 0.000000 0.000000 10.000000 
Motor_Bone 0.000000 0.000000 0.000000 0.000000 0.000000 0.000000 10.000000 
Ping_Mechanism 0.000000 0.000000 0.000000 0.000000 0.000000 0.000000 10.000000 
BN_LookIK 0.000000 0.000000 0.000000 0.000000 0.000000 0.000000 10.000000 
bottomMouth 0.000000 0.000000 0.000000 0.000000 0.000000 0.000000 10.000000 
L_Mouth01 0.000000 0.000000 0.000000 0.000000 0.000000 0.000000 10.000000 
L_mouthFront 0.000000 0.000000 0.000000 0.000000 0.000000 0.000000 10.000000 
mouthGun 0.000000 0.000000 0.000000 0.000000 0.000000 0.000000 10.000000 
R_Mouth01 0.000000 0.000000 0.000000 0.000000 0.000000 0.000000 10.000000 
R_mouthFront 0.000000 0.000000 0.000000 0.000000 0.000000 0.000000 10.000000 
TopMouth 0.000000 0.000000 0.000000 0.000000 0.000000 0.000000 10.000000 
weapon_bone 0.000000 0.000000 0.000000 0.000000 0.000000 0.000000 10.000000 
#Beginning of Data. Separated by tabs
#Fr	Tx	Ty	Tz	Rx	Ry	Rz	SF
[Pinger_Root]
25 0.000000 0.000000 0.000000 -0.000071 0.000024 37.101559 0.000000
26 0.000000 0.000000 0.000000 -0.000071 0.000026 39.705833 0.000000
27 0.000000 0.000000 0.000000 -0.000070 0.000027 42.310120 0.000000
[Pelvis]
25 216.975006 345.730927 4368.164063 -123.369843 -80.815277 135.656387 4387.193359
26 80.313919 334.199524 4334.742676 -140.130157 -78.629402 154.748734 4348.348145
27 -25.231936 317.863098 4324.416504 -150.554260 -76.690010 168.055115 4336.156250
[L_Hip]
25 5.766392 125.831482 872.656799 160.158691 -45.484905 122.312202 881.701050
26 5.766392 125.831482 872.656799 160.158691 -45.484905 122.312202 881.701050
27 5.766392 125.831482 872.656799 160.158691 -45.484905 122.312202 881.701050
[R_Hip]
25 5.765438 125.836372 -872.654907 38.087841 49.812687 125.703735 881.699829
26 5.765438 125.836372 -872.654907 38.087841 49.812687 125.703735 881.699829
27 5.765438 125.836372 -872.654907 38.087841 49.812687 125.703735 881.699829
[Rear_Leg01]
25 -192.298416 -925.602966 -0.001907 152.522171 -0.141376 -139.277649 945.367432
26 -192.298416 -925.602966 -0.001907 150.664139 6.281516 -139.650482 945.367432
27 -192.298416 -925.602966 -0.001907 150.185471 10.087047 -139.237900 945.367432
[Spine1]
25 290.604584 5.007505 0.000477 17.526079 -6.773989 15.677629 290.647736
26 290.604584 5.007505 0.000477 15.885365 -1.641141 16.542734 290.647736
27 290.604584 5.007505 0.000477 13.533647 2.971003 17.879568 290.647736
[L_Leg01]
25 761.932007 -0.002384 -0.069261 18.869751 15.001821 -6.357642 761.932068
26 761.932007 -0.002384 -0.069261 19.228758 14.874002 -0.939896 761.932068
27 761.932007 -0.002384 -0.069261 20.006170 12.947308 0.738388 761.932068
[L_Leg02]
25 1441.140503 -0.000954 -0.000715 -0.697035 0.209248 -109.873413 1441.140503
26 1441.140503 -0.000954 -0.000715 1.102073 -0.126354 -116.989952 1441.140503
27 1441.140503 -0.000954 -0.000715 2.400800 -0.071660 -119.863152 1441.140503
[L_Leg03]
25 1686.963989 -0.000715 -0.000954 0.007258 -0.002888 107.425980 1686.963989
26 1686.963989 -0.000715 -0.000954 -0.020840 0.008225 115.116608 1686.963989
27 1686.963989 -0.000715 -0.000954 -0.043006 0.019299 121.273209 1686.963989
[L_Foot]
25 3041.570068 -30.715107 11.297464 -25.683273 20.633436 42.463497 3041.746094
26 3041.570068 -30.715107 11.297464 -21.345009 15.745256 42.990086 3041.746094
27 3041.570068 -30.715107 11.297464 -17.371384 12.621338 42.379330 3041.746094
[L_Toe1_01]
25 -188.216690 -224.732346 -21.137953 84.075554 -3.812669 -176.896576 293.899567
26 -188.216690 -224.732346 -21.137953 83.949692 -3.865208 -174.441956 293.899567
27 -188.216690 -224.732346 -21.137953 83.882957 -3.864075 -173.120224 293.899567
[L_Toe2_01]
25 200.746536 -219.926590 148.838394 -85.522079 -16.848932 -50.513588 332.896027
26 200.746536 -219.926590 148.838394 -84.807266 -16.640398 -52.961578 332.896027
27 200.746536 -219.926590 148.838394 -84.450089 -16.483778 -54.231441 332.896027
[L_Toe3_01]
25 188.832520 -219.859131 -191.078659 -94.049408 27.544167 -57.948643 347.140900
26 188.832520 -219.859131 -191.078659 -94.795563 26.647095 -60.744186 347.140900
27 188.832520 -219.859131 -191.078659 -95.184326 26.179487 -62.235931 347.140900
[planeAlignerLeft]
25 43.824776 -525.944763 -4.439936 169.342026 -86.300751 89.935951 527.786133
26 36.373611 -558.269531 -0.593345 169.342026 -86.300697 89.935905 559.453613
27 32.808540 -575.795593 0.917737 169.342056 -86.300751 89.935905 576.730225
[L_Toe1_02]
25 413.761139 0.000477 0.000000 0.001386 -25.668755 0.001386 413.761139
26 413.761139 0.000477 0.000000 0.001386 -25.725409 0.001386 413.761139
27 413.761139 0.000477 0.000000 0.001386 -25.782066 0.001386 413.761139
[L_Toe1_03]
25 464.317322 0.000358 -0.000089 0.004492 59.710865 0.004492 464.317322
26 464.317322 0.000358 -0.000089 0.004125 56.941292 0.004125 464.317322
27 464.317322 0.000358 -0.000089 0.003948 55.410854 0.003948 464.317322
[L_Toe2_02]
25 342.235809 -0.000477 0.000238 0.001184 -74.748711 0.001184 342.235809
26 342.235809 -0.000477 0.000238 0.001185 -74.051804 0.001185 342.235809
27 342.235809 -0.000477 0.000238 0.001186 -73.354881 0.001186 342.235809
[L_Toe2_03]
25 420.210846 -0.000715 0.000000 -179.969482 87.959244 -179.965973 420.210846
26 420.210846 -0.000715 0.000000 0.000000 89.473251 0.003491 420.210846
27 420.210846 -0.000715 0.000000 -0.034134 87.965874 -0.030637 420.210846
[L_Toe3_02]
25 329.270111 0.000954 0.000000 0.001176 -82.195839 0.001176 329.270111
26 329.270111 0.000954 0.000000 0.001177 -81.914009 0.001177 329.270111
27 329.270111 0.000954 0.000000 0.001177 -81.632034 0.001177 329.270111
[L_Toe3_03]
25 439.137451 -0.001907 0.000954 -179.998459 69.997360 -179.994919 439.137451
26 439.137451 -0.001907 0.000954 -179.998047 72.283569 -179.994507 439.137451
27 439.137451 -0.001907 0.000954 -179.997711 73.692375 -179.994186 439.137451
[planeLockWeightLeft]
25 1000.000000 0.098225 0.076092 -0.011826 -0.004376 0.005620 1000.000000
26 1000.000000 0.098217 0.076093 -0.011826 -0.004376 0.005620 1000.000000
27 1000.000000 0.098209 0.076095 -0.011826 -0.004376 0.005620 1000.000000
[R_Leg01]
25 761.455627 -0.001907 -0.000358 126.875641 14.169606 43.232365 761.455688
26 761.455627 -0.001907 -0.000358 124.309296 11.323247 48.326141 761.455688
27 761.455627 -0.001907 -0.000358 125.015068 5.525044 47.581837 761.455688
[R_Leg02]
25 1441.140625 0.000000 -0.000238 -0.549125 0.146221 -112.255119 1441.140625
26 1441.140625 0.000000 -0.000238 0.011924 0.013744 -108.569458 1441.140625
27 1441.140625 0.000000 -0.000238 0.076640 -0.031324 -110.253983 1441.140625
[R_Leg03]
25 1686.963989 0.000954 0.001431 -0.004581 0.000773 109.155167 1686.963989
26 1686.963989 0.000954 0.001431 -0.038859 0.010416 99.974533 1686.963989
27 1686.963989 0.000954 0.001431 -0.081843 0.012375 87.739754 1686.963989
[R_Foot]
25 3041.560059 -30.531288 -11.204481 13.744740 -32.408768 70.074387 3041.734131
26 3041.560059 -30.531288 -11.204481 15.585971 -39.059345 72.337883 3041.734131
27 3041.560059 -30.531288 -11.204481 17.676912 -41.665672 76.511696 3041.734131
[planeAlignerRight]
25 95.072586 -482.030396 -324.500732 52.388668 -57.257748 -147.795547 588.806274
26 113.677940 -465.924988 -316.629364 54.163025 -55.663841 -149.276733 574.685059
27 84.646507 -495.918427 -298.765259 55.256054 -54.566643 -150.173248 585.116089
[R_Toe1_01]
25 -188.383347 -224.864899 21.052242 80.412178 42.233932 -173.429779 294.101532
26 -188.383347 -224.864899 21.052242 79.623161 44.433475 -174.911697 294.101532
27 -188.383347 -224.864899 21.052242 82.716835 44.215267 -170.614380 294.101532
[R_Toe2_01]
25 200.637817 -220.002121 -148.787384 -56.638012 2.866769 -41.074287 332.857574
26 200.637817 -220.002121 -148.787384 -54.049179 1.370354 -39.823997 332.857574
27 200.637817 -220.002121 -148.787384 -55.225548 -1.458661 -42.317909 332.857574
[R_Toe3_01]
25 188.606735 -220.092957 191.126343 -30.470291 -25.361813 -87.256409 347.192566
26 188.606735 -220.092957 191.126343 -28.117117 -26.617811 -87.601265 347.192566
27 188.606735 -220.092957 191.126343 -25.044165 -25.208910 -91.782578 347.192566
[planeLockWeightRight]
25 999.999695 0.000305 0.076058 -0.011823 -0.004379 -0.000027 999.999695
26 999.999695 0.000305 0.076055 -0.011823 -0.004379 -0.000027 999.999695
27 999.999695 0.000305 0.076052 -0.011823 -0.004379 -0.000027 999.999695
[R_Toe1_02]
25 413.762085 0.000477 -0.000119 0.001388 -25.490387 0.001388 413.762085
26 413.762085 0.000477 -0.000119 0.001389 -25.353495 0.001389 413.762085
27 413.762085 0.000477 -0.000119 0.001385 -25.794712 0.001385 413.762085
[R_Toe1_03]
25 464.317810 0.000000 0.001088 0.005026 62.990772 0.005026 464.317810
26 464.317810 0.000000 0.001088 0.005290 64.362549 0.005290 464.317810
27 464.317810 0.000000 0.001088 0.004447 59.397484 0.004447 464.317810
[R_Toe2_02]
25 342.234741 -0.000954 0.000238 0.001201 -65.529694 0.001201 342.234741
26 342.234741 -0.000954 0.000238 0.001203 -64.785683 0.001203 342.234741
27 342.234741 -0.000954 0.000238 0.001199 -66.202812 0.001199 342.234741
[R_Toe2_03]
25 420.210846 0.000715 -0.000268 -0.005142 70.342010 -0.001592 420.210846
26 420.210846 0.000715 -0.000268 -0.004921 68.926186 -0.001365 420.210846
27 420.210846 0.000715 -0.000268 -0.005368 71.611336 -0.001826 420.210846
[R_Toe3_02]
25 329.270355 -0.000477 -0.000954 0.001179 -78.566628 0.001179 329.270355
26 329.270355 -0.000477 -0.000954 0.001179 -78.876518 0.001179 329.270355
27 329.270355 -0.000477 -0.000954 0.001181 -77.139038 0.001181 329.270355
[R_Toe3_03]
25 439.137939 0.000238 0.001431 -179.987488 85.379883 -179.983994 439.137939
26 439.137939 0.000238 0.001431 -179.990097 84.343590 -179.986603 439.137939
27 439.137939 0.000238 0.001431 0.000000 89.709930 0.003500 439.137939
[Rear_Leg02]
25 1162.777710 -0.029802 0.005960 17.317118 -4.131723 -126.071472 1162.777710
26 1162.777710 -0.029802 0.005960 8.165517 -1.583391 -130.984833 1162.777710
27 1162.777710 -0.029802 0.005960 1.320523 -0.464089 -128.832855 1162.777710
[Rear_Leg03]
25 607.192505 -0.013351 -0.073195 0.009876 -0.006215 80.718155 607.192505
26 607.192505 -0.013351 -0.073195 0.009863 -0.006235 80.958511 607.192505
27 607.192505 -0.013351 -0.073195 0.009901 -0.006174 80.245193 607.192505
[Rear_Leg04]
25 995.874512 -0.020504 -0.011921 -0.042322 -0.014790 107.293221 995.874573
26 995.874512 -0.020504 -0.011921 -0.042575 -0.014047 109.300735 995.874573
27 995.874512 -0.020504 -0.011921 -0.044917 -0.012132 103.928055 995.874573
[Rear_Foot]
25 3096.176270 -0.067472 -0.041425 -84.770172 73.531509 50.118465 3096.176270
26 3096.176270 -0.067472 -0.041425 -122.644691 80.232895 25.076849 3096.176270
27 3096.176270 -0.067472 -0.041425 -168.130005 82.954628 -8.739016 3096.176270
[planeAlignerCenter]
25 -10.107525 -120.480263 -930.238953 18.574484 3.353237 166.003830 938.062988
26 83.787277 -49.973427 -1009.921814 14.015702 7.603355 175.174103 1014.622925
27 155.215424 -9.667895 -1039.910156 12.238686 11.087654 -179.998627 1051.474487
[Rear_Toe1_01]
25 0.653352 83.966492 -371.173737 -41.943256 67.074821 49.315853 380.553192
26 0.653352 83.966492 -371.173737 -23.776577 61.097477 68.660591 380.553192
27 0.653352 83.966492 -371.173737 -11.311847 45.451683 84.954918 380.553192
[Rear_Toe2_01]
25 178.200760 -294.826019 -362.060547 1.892678 53.707909 -72.111366 499.765686
26 178.200760 -294.826019 -362.060547 5.082504 48.817055 -63.506042 499.765686
27 178.200760 -294.826019 -362.060547 5.107182 40.294720 -64.029205 499.765686
[Rear_Toe3_01]
25 -153.359680 -308.780914 -362.060852 24.722260 51.282913 -94.544678 499.952881
26 -153.359680 -308.780914 -362.060852 23.137917 52.595325 -92.368744 499.952881
27 -153.359680 -308.780914 -362.060852 20.023275 47.815018 -96.798439 499.952881
[planeLockWeightCenter]
25 -0.000076 0.000000 0.076332 -0.011814 -0.004373 -0.000015 0.076332
26 -0.000038 0.000000 0.076294 -0.011814 -0.004373 -0.000015 0.076294
27 156.249771 0.000000 0.076351 -0.011814 -0.004373 -0.000015 156.249802
[Rear_Toe1_02]
25 379.707825 0.194073 0.000477 -0.004348 -33.526630 0.003043 379.707855
26 379.707825 0.194073 0.000477 -0.000105 -29.743183 0.006862 379.707855
27 379.707825 0.194073 0.000477 -0.003293 -0.077524 0.011552 379.707855
[Rear_Toe1_03]
25 500.129700 0.165701 0.000119 0.012031 78.804008 0.012031 500.129761
26 500.129700 0.165701 0.000119 -0.000813 43.763870 0.006791 500.129761
27 500.129700 0.165701 0.000119 -0.003291 -0.032880 0.021441 500.129761
[Rear_Toe2_02]
25 340.494507 0.000238 -0.000954 0.001176 -82.090279 0.001176 340.494507
26 340.494507 0.000238 -0.000954 0.001179 -78.780525 0.001179 340.494507
27 340.494507 0.000238 -0.000954 0.001191 -70.228958 0.001191 340.494507
[Rear_Toe2_03]
25 433.103577 0.000000 0.000238 179.933197 87.986755 179.933197 433.103546
26 433.103577 0.000000 0.000238 0.027682 85.140259 0.027682 433.103546
27 433.103577 0.000000 0.000238 0.006883 70.366089 0.006883 433.103546
[Rear_Toe3_02]
25 340.494141 -0.000358 -0.000477 0.001175 -83.979301 0.001175 340.494171
26 340.494141 -0.000358 -0.000477 0.001180 -77.773018 0.001180 340.494171
27 340.494141 -0.000358 -0.000477 0.007708 -65.666412 -0.008883 340.494171
[Rear_Toe3_03]
25 433.103577 0.001431 -0.000238 -179.991333 83.678085 -179.987823 433.103546
26 433.103577 0.001431 -0.000238 -0.011501 83.240707 -0.007998 433.103546
27 433.103577 0.001431 -0.000238 -0.000729 63.685989 -0.004320 433.103546
[Back_Bone]
25 1312.175781 -701.934692 0.000954 0.000023 -0.000007 -85.606667 1488.125488
26 1312.175781 -701.934692 0.000954 0.000023 -0.000007 -85.606667 1488.125488
27 1312.175781 -701.934692 0.000954 0.000023 -0.000007 -85.606667 1488.125488
[Head]
25 1406.159424 809.709290 0.001431 0.000625 -1.475623 7.768025 1622.625488
26 1406.159424 809.709290 0.001431 0.000625 -1.475623 7.768025 1622.625488
27 1406.159424 809.709290 0.001431 0.000625 -1.475623 7.768025 1622.625488
[Motor_Bone]
25 1158.364380 -417.834747 0.000477 -0.048477 10.084854 -105.271553 1231.419434
26 1158.364380 -417.834747 0.000477 -0.018418 12.837690 -105.064262 1231.419434
27 1158.364380 -417.834747 0.000477 -0.014009 13.999977 -105.078339 1231.419434
[Ping_Mechanism]
25 1256.017700 -452.845459 -7.707944 0.000103 -0.000053 82.120995 1335.181274
26 1258.451782 -453.875122 -29.055973 0.000103 -0.000053 82.120995 1338.113525
27 1256.382080 -451.618652 -47.617420 0.000103 -0.000053 82.120995 1335.935059
[BN_LookIK]
25 193.241119 1380.371704 -0.002861 0.000000 89.965736 -31.038179 1393.832153
26 193.241119 1380.371704 -0.002861 0.000000 89.965736 -31.038179 1393.832153
27 193.241119 1380.371704 -0.002861 0.000000 89.965736 -31.038179 1393.832153
[bottomMouth]
25 -435.092926 615.759399 -0.000954 -0.000022 0.000016 73.527184 753.966492
26 -435.092926 615.759399 -0.000954 -0.000022 0.000016 73.527184 753.966492
27 -435.092926 615.759399 -0.000954 -0.000022 0.000016 73.527184 753.966492
[L_Mouth01]
25 554.440979 7.658243 838.222046 150.204178 23.759130 109.605339 1005.027161
26 554.440979 7.658243 838.222046 150.204178 23.759130 109.605339 1005.027161
27 554.440979 7.658243 838.222046 150.204178 23.759130 109.605339 1005.027161
[L_mouthFront]
25 551.629089 934.514771 339.150421 0.000081 2.804060 79.119301 1136.941284
26 551.629089 934.514771 339.150421 0.000081 2.804060 79.119301 1136.941284
27 551.629089 934.514771 339.150421 0.000081 2.804060 79.119301 1136.941284
[mouthGun]
25 55.332661 1627.420898 0.000000 0.000023 0.000009 -11.038128 1628.361328
26 55.332661 1627.420898 0.000000 0.000023 0.000009 -11.038128 1628.361328
27 55.332661 1627.420898 0.000000 0.000023 0.000009 -11.038128 1628.361328
[R_Mouth01]
25 554.442383 7.659197 -838.223938 29.795891 -23.759109 109.605331 1005.029541
26 554.442383 7.659197 -838.223938 29.795891 -23.759109 109.605331 1005.029541
27 554.442383 7.659197 -838.223938 29.795891 -23.759109 109.605331 1005.029541
[R_mouthFront]
25 551.629089 934.514282 -339.151367 0.000029 -2.803930 79.119133 1136.941162
26 551.629089 934.514282 -339.151367 0.000029 -2.803930 79.119133 1136.941162
27 551.629089 934.514282 -339.151367 0.000029 -2.803930 79.119133 1136.941162
[TopMouth]
25 461.269867 -56.106091 -0.008583 -0.000059 -0.000268 92.025169 464.669525
26 461.269867 -56.106091 -0.008583 -0.000059 -0.000268 92.025169 464.669525
27 461.269867 -56.106091 -0.008583 -0.000059 -0.000268 92.025169 464.669525
[weapon_bone]
25 -987.239868 1448.372803 0.001431 0.000000 89.965736 -31.038221 1752.833740
26 -987.239868 1448.372803 0.001431 0.000000 89.965736 -31.038221 1752.833740
27 -987.239868 1448.372803 0.001431 0.000000 89.965736 -31.038221 1752.833740
